# xmcd
#
# Track frame offsets: 
#        150
#        20984
#        43695
#        62699
#        84423
#        95181
#        114536
#        134054
#        155562
#        180754
#        207353
#        227153
#        241146
#        264638
#        285942
#        318082
#        339119
#
# Disc length: 4797 seconds
#
# Revision: 0
# Processed by: cddbd v1.5.2PL0 Copyright (c) Steve Scherf et al.
# Submitted via: ExactAudioCopy v0.99pb3
#
DISCID=ea12bb11
DTITLE=Angry Johnny And The Killbillies - Puttin The Voodoo On Monroe
DYEAR=2004
DGENRE=Country
TTITLE0=When I Think Of You
TTITLE1=Jerry Lynn
TTITLE2=Only Thing I Want To Do
TTITLE3=Let´s Get It Over With
TTITLE4=Walpole Prison Blues
TTITLE5=Lazuri
TTITLE6=One Bullet Blues
TTITLE7=Lucky Day
TTITLE8=I Choose The Gun
TTITLE9=Baker´s Farm
TTITLE10=Only Thing He Said
TTITLE11=I Think I See The Light
TTITLE12=Body Doing Time
TTITLE13=Waltzing On Air
TTITLE14=Trains Don´t Run
TTITLE15=Sold Me Down The River
TTITLE16=Bonus
EXTD=
EXTT0=
EXTT1=
EXTT2=
EXTT3=
EXTT4=
EXTT5=
EXTT6=
EXTT7=
EXTT8=
EXTT9=
EXTT10=
EXTT11=
EXTT12=
EXTT13=
EXTT14=
EXTT15=
EXTT16=
PLAYORDER=
